<svg width="18" height="18" viewBox="0 0 18 18" fill="none" xmlns="http://www.w3.org/2000/svg">
<g id="bi:moon-stars" clip-path="url(#clip0_118_14701)">
<g id="Group">
<path id="Vector" d="M7.02524 1.02866C7.12754 1.15297 7.19021 1.30509 7.20516 1.46538C7.2201 1.62567 7.18664 1.78676 7.10908 1.92783C6.5032 3.04024 6.18679 4.28714 6.18896 5.55384C6.18896 9.76777 9.62424 13.18 13.8581 13.18C14.4104 13.18 14.948 13.1224 15.4646 13.0123C15.623 12.978 15.788 12.9911 15.9389 13.05C16.0899 13.1089 16.2202 13.211 16.3135 13.3435C16.412 13.4812 16.4622 13.6477 16.4563 13.8169C16.4505 13.9862 16.3888 14.1487 16.281 14.2793C15.4591 15.289 14.4221 16.1025 13.2459 16.6605C12.0696 17.2186 10.7836 17.5071 9.48171 17.505C4.65052 17.505 0.737366 13.6128 0.737366 8.81725C0.737366 5.20801 2.9528 2.11228 6.10721 0.800205C6.26435 0.733797 6.43878 0.720167 6.60432 0.761363C6.76986 0.802559 6.91757 0.896356 7.02524 1.02866ZM5.82845 2.11123C4.61552 2.76184 3.60153 3.72893 2.89425 4.90971C2.18696 6.09049 1.8128 7.44084 1.81155 8.81725C1.81155 13.0301 5.24787 16.4424 9.48171 16.4424C10.4956 16.4441 11.4997 16.2448 12.436 15.8558C13.3723 15.4669 14.2222 14.8962 14.9364 14.1766C14.5833 14.2206 14.2238 14.2426 13.8581 14.2426C9.02689 14.2426 5.11478 10.3504 5.11478 5.55489C5.11478 4.3319 5.36839 3.16759 5.82845 2.11123Z" fill="white"/>
<path id="Vector_2" d="M12.0493 4.03642C12.0644 3.99104 12.0933 3.95155 12.1321 3.92356C12.1708 3.89556 12.2174 3.8805 12.2652 3.8805C12.313 3.8805 12.3596 3.89556 12.3984 3.92356C12.4371 3.95155 12.4661 3.99104 12.4811 4.03642L12.8867 5.25418C13.068 5.79703 13.4934 6.22251 14.0363 6.40381L15.2541 6.80938C15.2994 6.82441 15.3389 6.85335 15.3669 6.89211C15.3949 6.93086 15.41 6.97746 15.41 7.02526C15.41 7.07307 15.3949 7.11966 15.3669 7.15842C15.3389 7.19717 15.2994 7.22612 15.2541 7.24115L14.0363 7.64671C13.7686 7.73592 13.5253 7.88624 13.3257 8.08579C13.1262 8.28534 12.9759 8.52862 12.8867 8.79635L12.4811 10.0141C12.4661 10.0595 12.4371 10.099 12.3984 10.127C12.3596 10.155 12.313 10.17 12.2652 10.17C12.2174 10.17 12.1708 10.155 12.1321 10.127C12.0933 10.099 12.0644 10.0595 12.0493 10.0141L11.6438 8.79635C11.5546 8.52862 11.4042 8.28534 11.2047 8.08579C11.0051 7.88624 10.7619 7.73592 10.4941 7.64671L9.27638 7.24115C9.231 7.22612 9.1915 7.19717 9.16351 7.15842C9.13552 7.11966 9.12045 7.07307 9.12045 7.02526C9.12045 6.97746 9.13552 6.93086 9.16351 6.89211C9.1915 6.85335 9.231 6.82441 9.27638 6.80938L10.4941 6.40381C10.7619 6.31461 11.0051 6.16428 11.2047 5.96473C11.4042 5.76519 11.5546 5.52191 11.6438 5.25418L12.0493 4.03642ZM15.2656 0.841133C15.2759 0.811294 15.2953 0.785419 15.321 0.767106C15.3468 0.748793 15.3776 0.738953 15.4092 0.738953C15.4407 0.738953 15.4715 0.748793 15.4973 0.767106C15.523 0.785419 15.5424 0.811294 15.5527 0.841133L15.8231 1.65227C15.9436 2.01487 16.2276 2.29887 16.5902 2.41939L17.4014 2.68977C17.4312 2.70012 17.4571 2.7195 17.4754 2.74523C17.4937 2.77096 17.5035 2.80176 17.5035 2.83334C17.5035 2.86493 17.4937 2.89572 17.4754 2.92145C17.4571 2.94719 17.4312 2.96657 17.4014 2.97692L16.5902 3.2473C16.4115 3.30674 16.2492 3.40702 16.116 3.54019C15.9828 3.67335 15.8826 3.83572 15.8231 4.01442L15.5527 4.82555C15.5424 4.85539 15.523 4.88127 15.4973 4.89958C15.4715 4.91789 15.4407 4.92773 15.4092 4.92773C15.3776 4.92773 15.3468 4.91789 15.321 4.89958C15.2953 4.88127 15.2759 4.85539 15.2656 4.82555L14.9952 4.01442C14.9358 3.83572 14.8355 3.67335 14.7023 3.54019C14.5691 3.40702 14.4068 3.30674 14.2281 3.2473L13.4169 2.97692C13.3871 2.96657 13.3612 2.94719 13.3429 2.92145C13.3246 2.89572 13.3148 2.86493 13.3148 2.83334C13.3148 2.80176 13.3246 2.77096 13.3429 2.74523C13.3612 2.7195 13.3871 2.70012 13.4169 2.68977L14.2281 2.41939C14.5907 2.29887 14.8747 2.01487 14.9952 1.65227L15.2656 0.842181V0.841133Z" fill="white"/>
</g>
</g>
<defs>
<clipPath id="clip0_118_14701">
<rect width="16.7677" height="16.7677" fill="white" transform="translate(0.737366 0.737366)"/>
</clipPath>
</defs>
</svg>
